# Blender 3.3.1
# www.blender.org
mtllib lowPolyIco.mtl
o Icosphere
v 0.000000 -1.000000 0.000000
v -0.276385 -0.447215 0.850640
v -0.894425 -0.447215 0.000000
v -0.000000 0.000000 -1.057673
v 0.899713 -0.556054 0.000000
v 0.276385 0.447215 0.850640
v -0.899713 0.556054 -0.000000
v 0.894425 0.447215 0.000000
v 0.000000 1.000000 0.000000
vn 0.3580 -0.7255 0.5878
vn -0.4911 -0.7947 0.3568
vn -0.4097 -0.6629 -0.6267
vn 0.3375 -0.6840 -0.6467
vn 0.5331 -0.3295 0.7792
vn -0.8090 -0.0043 0.5878
vn -0.7627 -0.0040 -0.6467
vn 0.8090 0.0043 0.5878
vn -0.5331 0.3295 0.7792
vn 0.7627 0.0040 -0.6467
vn 0.4911 0.7947 0.3568
vn -0.3580 0.7255 0.5878
vn -0.3375 0.6840 -0.6467
vn 0.4097 0.6629 -0.6267
vt 0.181819 0.000000
vt 0.909091 0.000000
vt 0.727273 0.000000
vt 0.545455 0.000000
vt 1.000000 0.157461
vt 0.090910 0.157461
vt 0.818182 0.157461
vt 0.590909 0.236191
vt 0.363637 0.157461
vt 0.181819 0.314921
vt 0.000000 0.314921
vt 0.818182 0.314921
vt 0.363637 0.314921
vt 0.272728 0.472382
vt 0.090910 0.472382
vt 0.636364 0.472382
vt 0.454546 0.472382
s 0
f 1/1/1 5/9/1 2/6/1
f 1/2/2 2/5/2 3/7/2
f 1/3/3 3/7/3 4/8/3
f 1/4/4 4/8/4 5/9/4
f 2/6/5 5/9/5 6/10/5
f 3/7/6 2/5/6 7/12/6
f 4/8/7 3/7/7 7/12/7
f 5/9/8 8/13/8 6/10/8
f 2/6/9 6/10/9 7/11/9
f 5/9/10 4/8/10 8/13/10
f 6/10/11 8/13/11 9/14/11
f 7/11/12 6/10/12 9/15/12
f 4/8/13 7/12/13 9/16/13
f 8/13/14 4/8/14 9/17/14
