# Blender 3.3.1
# www.blender.org
mtllib tetra2.mtl
o Solid
v 0.942653 -0.333981 -0.001395
v -0.471561 -0.333981 -0.817892
v -0.471561 -0.333981 0.815101
v -0.000312 -1.667962 -0.002790
vn 0.4713 -0.3340 0.8163
vn -0.9429 -0.3331 -0.0000
vn 0.4716 -0.3325 -0.8168
vn -0.0000 1.0000 -0.0000
s 0
f 4//1 1//1 3//1
f 4//2 3//2 2//2
f 4//3 2//3 1//3
f 2//4 3//4 1//4
o Solid.001
v 0.000000 1.000000 0.000000
v 0.942653 -0.333981 -0.001395
v -0.471561 -0.333981 -0.817892
v -0.471561 -0.333981 0.815101
vn 0.4713 0.3339 -0.8163
vn -0.9428 0.3333 -0.0000
vn 0.4716 0.3324 0.8168
vn -0.0000 1.0000 -0.0000
s 0
f 5//5 6//5 7//5
f 5//6 7//6 8//6
f 5//7 8//7 6//7
f 6//8 7//8 8//8
