# Blender 3.5.0
# www.blender.org
mtllib tetra5.mtl
o Tetra5
v -1.000000 -1.000000 -1.000000
v -1.000000 1.000000 -1.000000
v 1.000000 -1.000000 -1.000000
v 1.000000 1.000000 -1.000000
v 0.000000 0.000000 0.000000
vn -0.0000 -0.0000 -1.0000
vn 0.7071 -0.0000 0.7071
vn -0.0000 -0.7071 -0.7071
vn -0.7071 -0.0000 0.7071
vn -0.0000 -0.7071 0.7071
vt 0.500000 0.000000
vt 0.853553 0.500000
vt 0.353553 1.000000
vt 0.500000 0.500000
vt 0.853553 0.000000
vt 0.000000 0.000000
vt 0.000000 1.000000
vt 0.000000 0.500000
vt 0.250000 0.250000
vt 0.500000 0.250000
vt 0.353553 0.750000
s 0
usemtl Material.001
f 1/1/1 2/4/1 4/8/1 3/6/1
f 3/7/2 4/8/2 5/11/2
f 5/9/3 2/4/3 4/8/3
f 1/2/4 5/10/4 2/5/4
f 1/3/5 3/7/5 5/11/5
