# Blender 3.5.0
# www.blender.org
mtllib tetra0.mtl
o Tetra0
v -1.000000 1.000000 1.000000
v -1.000000 1.000000 -1.000000
v 1.000000 1.000000 1.000000
v 1.000000 1.000000 -1.000000
v 0.000000 0.000000 0.000000
vn -0.7071 -0.7071 -0.0000
vn -0.0000 -0.7071 -0.7071
vn -0.0000 0.7071 -0.7071
vn -0.7071 0.7071 -0.0000
vn -0.0000 1.0000 -0.0000
vt 1.000000 0.000000
vt 0.585786 0.585786
vt 1.000000 0.585786
vt 0.585786 0.000000
vt 0.000000 0.585786
vt 0.585786 0.585786
vt 0.000000 0.000000
vt 0.585786 0.292893
vt 0.292893 0.292893
s 0
usemtl Material.001
f 5/8/1 1/1/1 2/3/1
f 5/8/2 2/3/2 4/6/2
f 3/5/3 5/9/3 1/2/3
f 4/7/4 5/9/4 3/5/4
f 1/2/5 3/5/5 4/7/5 2/4/5
