# Blender 3.5.0
# www.blender.org
mtllib tetra2.mtl
o Tetra2
v -1.000000 -1.000000 1.000000
v -1.000000 -1.000000 -1.000000
v 1.000000 -1.000000 1.000000
v 1.000000 -1.000000 -1.000000
v 0.000000 0.000000 0.000000
vn -0.0000 -1.0000 -0.0000
vn -0.0000 0.7071 0.7071
vn 0.7071 0.7071 -0.0000
vn -0.0000 0.7071 -0.7071
vn -0.7071 0.7071 -0.0000
vt 0.000000 0.535898
vt 0.914836 0.464102
vt 0.000000 0.000000
vt 0.973458 0.000000
vt 0.535898 0.464102
vt 0.535898 0.535898
vt 0.914836 1.000000
vt 0.535898 0.000000
vt 0.535898 1.000000
vt 0.535898 0.309401
vt 0.973458 0.464102
vt 0.535898 0.732051
s 0
usemtl Material.001
f 2/3/1 4/8/1 3/6/1 1/1/1
f 5/12/2 1/2/2 3/7/2
f 4/9/3 5/12/3 3/7/3
f 5/11/4 4/10/4 2/4/4
f 5/12/5 2/5/5 1/2/5
