# Blender 3.5.0
# www.blender.org
mtllib tetra3.mtl
o Tetra3
v -1.000000 -1.000000 1.000000
v -1.000000 1.000000 1.000000
v -1.000000 -1.000000 -1.000000
v -1.000000 1.000000 -1.000000
v 0.000000 0.000000 0.000000
vn -1.0000 -0.0000 -0.0000
vn 0.7071 -0.0000 -0.7071
vn -0.7071 -0.0000 -0.7071
vn -0.7071 -0.7071 -0.0000
vn -0.7071 0.7071 -0.0000
vt 0.585786 0.000000
vt 0.585786 0.585786
vt 1.000000 0.000000
vt 0.000000 0.000000
vt 1.000000 0.585786
vt 0.000000 0.585786
vt 0.585786 0.292893
vt 0.292893 0.292893
s 0
usemtl Material.001
f 1/1/1 2/2/1 4/6/1 3/4/1
f 4/5/2 5/7/2 3/3/2
f 5/8/3 1/1/3 2/2/3
f 5/8/4 2/2/4 4/6/4
f 5/8/5 3/4/5 1/1/5
